<svg width="96" height="96" viewBox="0 0 96 96" fill="none" xmlns="http://www.w3.org/2000/svg">
<rect x="6" y="21" width="79" height="66" rx="10" fill="#1C4B85" stroke="black" stroke-width="4"/>
<rect x="54" y="44" width="40" height="20" rx="4" fill="#1C4B85" stroke="black" stroke-width="4"/>
<path d="M56 29H72C74.7614 29 77 31.2386 77 34V35" stroke="black" stroke-width="4" stroke-linecap="round"/>
<path d="M46 29L49 29" stroke="black" stroke-width="4" stroke-linecap="round"/>
<path d="M14 44L14 74C14 76.7614 16.2386 79 19 79L26 79" stroke="black" stroke-width="4" stroke-linecap="round"/>
<path d="M31 79H35" stroke="black" stroke-width="4" stroke-linecap="round"/>
<path d="M77 72H84" stroke="black" stroke-width="4" stroke-linecap="round"/>
<path d="M67 72H71" stroke="black" stroke-width="4" stroke-linecap="round"/>
<circle cx="64" cy="54" r="4" fill="#1C4B85" stroke="black" stroke-width="4"/>
<path d="M20.0716 21L21.5882 19.0362C21.947 18.674 22.2882 18.3282 22.614 17.9979C24.1452 16.4459 25.3376 15.2374 26.43 14.275C27.745 13.1165 28.7786 12.4422 29.8632 12.0528C32.0852 11.2549 35.0154 11.4503 41.8514 12.8384C50.7827 14.652 57.7273 11.7466 62.3705 8.02956C63.206 7.36076 64.5035 7.03517 65.7391 7.21038C66.9702 7.38497 67.7433 7.97821 68.0353 8.69752L73.0296 21H34.6727H20.0716Z" fill="#ADFDB0" stroke="black" stroke-width="4"/>
</svg>
